<svg xmlns="http://www.w3.org/2000/svg" width="1400" height="900" viewBox="0 0 1400 900">
  <defs>
    <linearGradient id="bg" x1="0" x2="1" y1="0" y2="1">
      <stop offset="0" stop-color="#2563EB" stop-opacity="0.18"/>
      <stop offset="1" stop-color="#0B1F3B" stop-opacity="0.12"/>
    </linearGradient>
  </defs>
  <rect width="1400" height="900" rx="44" fill="#F9FAFB"/>
  <rect x="52" y="52" width="1296" height="796" rx="34" fill="#ffffff" stroke="#E5E7EB" stroke-width="3"/>
  <rect x="92" y="92" width="1216" height="104" rx="22" fill="url(#bg)"/>
  <circle cx="132" cy="144" r="10" fill="#2563EB"/>
  <circle cx="162" cy="144" r="10" fill="#93C5FD"/>
  <circle cx="192" cy="144" r="10" fill="#CBD5E1"/>
  <rect x="232" y="128" width="300" height="32" rx="16" fill="#ffffff" opacity="0.88"/>
  <rect x="92" y="222" width="740" height="320" rx="26" fill="url(#bg)"/>
  <rect x="860" y="222" width="448" height="144" rx="26" fill="#F3F4F6"/>
  <rect x="860" y="398" width="448" height="144" rx="26" fill="#F3F4F6"/>
  <rect x="92" y="580" width="1216" height="34" rx="17" fill="#E5E7EB"/>
  <rect x="92" y="640" width="980" height="28" rx="14" fill="#F3F4F6"/>
  <rect x="92" y="684" width="860" height="28" rx="14" fill="#F3F4F6"/>
  <rect x="92" y="728" width="620" height="28" rx="14" fill="#F3F4F6"/>
  <text x="130" y="290" font-family="Inter, system-ui, -apple-system" font-size="40" fill="#0B1F3B" font-weight="900">Ecommerce / Brand</text>
  <text x="130" y="336" font-family="Inter, system-ui, -apple-system" font-size="20" fill="#64748B">Brand-first design with trust blocks and clean layout.</text>
  <rect x="130" y="380" width="220" height="46" rx="23" fill="#2563EB"/>
  <text x="240" y="411" text-anchor="middle" font-family="Inter, system-ui, -apple-system" font-size="16" fill="#ffffff" font-weight="800">Get a Quote</text>
</svg>